<?xml version="1.0" standalone="no"?>
<!DOCTYPE svg PUBLIC "-//W3C//DTD SVG 20010904//EN"
 "http://www.w3.org/TR/2001/REC-SVG-20010904/DTD/svg10.dtd">
<svg version="1.0" xmlns="http://www.w3.org/2000/svg"
 width="562.000000pt" height="562.000000pt" viewBox="0 0 562.000000 562.000000"
 preserveAspectRatio="xMidYMid meet">
<metadata>
Created by potrace 1.14, written by Peter Selinger 2001-2017
</metadata>
<g transform="translate(0.000000,562.000000) scale(0.100000,-0.100000)"
fill="#000000" stroke="none">
<path d="M4723 5549 c-35 -4 -75 -10 -90 -12 -16 -3 -57 -10 -93 -16 -218 -37
-325 -68 -515 -149 -335 -143 -615 -313 -901 -548 l-113 -93 -313 0 c-656 -1
-588 2 -588 -22 0 -11 3 -18 8 -16 4 3 7 -10 8 -29 0 -19 4 -37 7 -40 7 -8 81
-22 157 -30 185 -22 240 -38 314 -97 48 -38 85 -78 86 -93 0 -5 -8 -19 -18
-30 -86 -95 -250 -334 -291 -425 -28 -62 -76 -209 -84 -259 -3 -14 -8 -44 -12
-67 -4 -24 -7 -43 -8 -43 -1 0 -40 -7 -87 -15 -111 -20 -273 -27 -615 -28
-309 0 -343 3 -495 40 -288 70 -625 231 -760 364 -153 151 -222 297 -223 478
-1 137 37 270 105 369 49 71 182 197 272 256 214 142 412 211 664 231 199 16
501 -5 722 -50 14 -3 41 -8 60 -11 106 -19 398 -94 555 -144 152 -48 143 -47
125 -25 -38 47 -263 119 -605 194 -165 36 -366 68 -500 78 -160 12 -403 6
-495 -12 -14 -3 -50 -10 -80 -16 -87 -17 -253 -75 -343 -120 -362 -181 -571
-459 -572 -759 0 -137 16 -198 77 -303 121 -207 344 -373 659 -490 95 -36 250
-84 299 -93 14 -3 52 -11 85 -18 33 -8 87 -17 120 -21 33 -4 71 -9 85 -11 136
-20 466 -19 715 1 28 2 89 7 138 10 l87 7 1 -68 c2 -160 18 -222 99 -391 70
-144 172 -236 337 -302 l67 -28 -3 -169 c-2 -165 3 -190 25 -116 9 32 11 20
13 -90 1 -69 -2 -129 -6 -131 -4 -3 -24 -8 -43 -11 -130 -20 -491 -119 -622
-170 -668 -258 -1312 -730 -1605 -1178 -147 -224 -190 -409 -131 -565 52 -141
189 -212 408 -211 254 1 525 84 780 239 90 55 97 58 135 49 50 -12 122 -13
129 -2 3 5 33 3 68 -4 80 -17 290 -15 374 2 36 8 79 16 97 19 151 26 273 83
433 203 124 93 169 150 241 303 87 184 123 378 138 749 9 203 9 205 49 252 46
53 47 72 1 28 -52 -50 -43 -32 28 57 34 44 95 122 136 175 l74 96 61 -4 c132
-7 208 -19 326 -50 52 -14 105 -28 118 -30 43 -9 117 -36 200 -75 217 -100
397 -268 489 -454 40 -79 59 -141 78 -250 24 -136 23 -135 46 -135 19 0 20 4
14 53 -20 173 -96 383 -173 476 -88 109 -248 245 -362 309 -98 54 -307 129
-410 147 -19 3 -43 8 -53 11 -11 3 -29 7 -40 9 -12 1 -48 6 -80 10 -32 4 -85
8 -118 9 -32 2 -60 6 -60 10 -1 5 86 126 193 270 107 143 248 335 313 426 93
128 154 200 275 321 85 86 192 184 238 218 l83 61 67 -53 c169 -134 370 -216
547 -223 173 -7 302 55 356 171 61 132 -39 215 -316 260 -193 32 -442 1 -628
-78 l-47 -20 -78 36 c-71 32 -195 68 -284 81 -373 57 -531 27 -682 -129 -52
-53 -87 -133 -93 -210 -5 -58 -3 -64 23 -94 60 -66 152 -70 244 -11 52 33 80
75 80 120 0 30 -18 24 -25 -10 -13 -58 -132 -127 -197 -115 -92 18 -113 118
-52 243 35 71 155 164 230 176 151 26 273 23 469 -9 101 -17 235 -55 289 -82
l29 -15 -34 -21 c-242 -146 -414 -288 -669 -551 -123 -127 -209 -186 -354
-240 -63 -24 -215 -60 -222 -54 -2 2 -4 50 -5 108 -1 92 -3 102 -16 85 -12
-17 -13 -11 -9 55 3 41 8 174 11 295 4 121 9 252 10 290 2 39 4 80 4 92 1 18
15 26 84 49 110 36 168 64 160 77 -4 6 -1 7 6 3 7 -5 20 -2 29 6 9 8 60 32
112 52 52 21 176 78 275 127 153 75 233 119 427 237 251 154 657 495 775 652
64 85 122 187 156 269 25 63 30 91 31 161 1 73 -3 92 -24 134 -15 28 -38 57
-55 66 -30 16 -115 44 -170 56 -46 10 -293 12 -362 3z m368 -108 c153 -39 205
-139 148 -283 -34 -87 -218 -320 -368 -466 -120 -118 -190 -167 -481 -342
-349 -209 -449 -263 -620 -329 -58 -23 -113 -46 -122 -51 -27 -15 -22 -2 10
25 19 17 -2 10 -73 -25 -79 -39 -282 -120 -299 -120 -2 0 -2 17 -1 38 2 20 6
80 9 132 4 52 8 106 10 120 3 14 8 48 11 75 4 28 9 61 11 75 8 57 46 161 71
190 70 84 242 139 481 153 34 2 64 6 66 8 10 12 15 78 6 84 -6 3 -155 6 -333
6 l-322 -1 35 31 c440 386 884 610 1355 684 119 19 326 17 406 -4z m-2334
-1358 c2 -100 16 -339 20 -346 2 -4 8 -5 12 -3 4 3 8 -2 8 -10 0 -10 -21 -20
-58 -31 -32 -9 -56 -19 -54 -24 3 -4 -4 -5 -15 -2 -11 3 -27 0 -35 -7 -8 -6
-18 -9 -24 -6 -5 3 -11 2 -13 -2 -3 -9 -68 -25 -68 -18 0 38 207 486 224 486
1 0 2 -17 3 -37z m2583 -453 c116 -21 200 -85 200 -151 0 -26 -33 -87 -59
-106 -42 -32 -127 -55 -206 -54 -95 0 -174 19 -274 67 -89 41 -321 182 -321
194 0 9 8 12 75 29 63 16 94 20 190 27 50 4 91 7 92 8 8 7 252 -4 303 -14z
m-2573 -66 c-3 -3 -12 -4 -19 -1 -8 3 -5 6 6 6 11 1 17 -2 13 -5z m-52 -14
c-13 -6 -3 -7 30 -4 l51 6 2 -191 c1 -146 -1 -190 -11 -188 -9 1 -12 -46 -11
-200 1 -146 -1 -203 -10 -203 -21 0 -119 50 -168 86 -65 49 -103 107 -128 198
-22 78 -30 229 -16 291 3 17 8 41 11 55 6 34 27 120 28 120 1 0 29 5 62 10 33
6 78 13 100 16 22 4 42 8 44 10 2 2 11 4 20 3 12 0 11 -3 -4 -9z m82 -412 c-3
-8 -6 -5 -6 6 -1 11 2 17 5 13 3 -3 4 -12 1 -19z m803 -377 c0 -10 -203 -295
-230 -321 -3 -3 -31 -40 -63 -83 -32 -43 -62 -75 -68 -72 -10 7 -9 125 2 125
11 0 23 78 33 228 3 41 11 49 65 56 23 3 86 21 140 40 103 37 121 41 121 27z
m-789 -766 c1 -91 2 -189 3 -217 1 -44 -4 -61 -31 -102 -38 -56 -41 -66 -11
-40 28 25 -80 -116 -189 -247 -144 -172 -157 -188 -283 -344 -161 -199 -255
-295 -482 -491 -16 -13 -28 -19 -28 -13 0 6 -7 9 -15 5 -33 -12 -11 21 57 88
114 114 147 217 104 330 -22 57 -98 127 -157 146 -212 65 -397 -64 -405 -283
-4 -110 34 -212 107 -289 23 -24 43 -52 45 -63 2 -11 17 -32 34 -47 16 -15 30
-30 30 -32 0 -2 -35 -24 -77 -49 -185 -105 -376 -178 -529 -203 -20 -3 -46 -8
-58 -10 -41 -9 -212 -5 -265 5 -159 32 -230 126 -217 287 11 134 62 259 175
429 99 151 153 213 321 370 283 265 717 552 1035 685 198 83 668 224 828 249
4 0 8 -73 8 -164z m5 -657 c-3 -24 -8 -79 -11 -123 -11 -146 -58 -310 -131
-456 -34 -68 -119 -189 -158 -223 -124 -109 -187 -138 -331 -152 -134 -13
-263 -6 -317 16 -21 8 -19 9 12 10 l35 1 -49 22 -49 22 59 45 c122 92 229 192
543 509 178 179 327 325 330 324 4 -1 20 9 37 22 16 13 30 24 32 25 1 0 0 -19
-2 -42z"/>
<path d="M2668 3533 c7 -3 16 -2 19 1 4 3 -2 6 -13 5 -11 0 -14 -3 -6 -6z"/>
</g>
</svg>
